<svg version="1.1" viewBox="0.0 0.0 256.0 256.0" fill="none" stroke="none" stroke-linecap="square" stroke-miterlimit="10" xmlns:xlink="http://www.w3.org/1999/xlink" xmlns="http://www.w3.org/2000/svg"><clipPath id="p.0"><path d="m0 0l256.0 0l0 256.0l-256.0 0l0 -256.0z" clip-rule="nonzero"/></clipPath><g clip-path="url(#p.0)"><path fill="#000000" fill-opacity="0.0" d="m0 0l256.0 0l0 256.0l-256.0 0z" fill-rule="evenodd"/><path fill="#cb4b16" d="m0 128.0l0 0c0 -70.692444 57.307552 -128.0 128.0 -128.0l0 0c33.94771 0 66.505005 13.485676 90.509674 37.490334c24.004654 24.004654 37.490326 56.56196 37.490326 90.50967l0 0c0 70.692444 -57.307556 128.0 -128.0 128.0l0 0c-70.692444 0 -128.0 -57.307556 -128.0 -128.0z" fill-rule="evenodd"/><path stroke="#cb4b16" stroke-width="1.0" stroke-linejoin="round" stroke-linecap="butt" d="m0 128.0l0 0c0 -70.692444 57.307552 -128.0 128.0 -128.0l0 0c33.94771 0 66.505005 13.485676 90.509674 37.490334c24.004654 24.004654 37.490326 56.56196 37.490326 90.50967l0 0c0 70.692444 -57.307556 128.0 -128.0 128.0l0 0c-70.692444 0 -128.0 -57.307556 -128.0 -128.0z" fill-rule="evenodd"/><path fill="#d9d9d9" d="m60.88189 60.88189l134.2362 0l0 134.2362l-134.2362 0z" fill-rule="evenodd"/><path stroke="#d9d9d9" stroke-width="1.0" stroke-linejoin="round" stroke-linecap="butt" d="m60.88189 60.88189l134.2362 0l0 134.2362l-134.2362 0z" fill-rule="evenodd"/></g></svg>